:version 1.10
:name ASF
:units
  mass 1
  length 1
  angle deg
:documentation
  ASF file generated by Kaydara
:root
  axis xyz
  order  tx ty tz rx ry rz
  position 0 0 0
  orientation 0 0 0
:bonedata
  begin
    id 1
    name lfemurDummy
    direction 0.61522 -0.761478 0.204097
    length 5.68318
    axis 0 -0 0 xyz
  end
  begin
    id 2
    name lfemur
    direction 0.34202 -0.939693 -5.84747e-008
    length 16.9147
    axis 0 -0 20 xyz
    dof rx ry rz
    limits( -inf , inf )
( -inf , inf )
( -inf , inf )

  end
  begin
    id 3
    name ltibia
    direction 0.34202 -0.939693 1.20839e-009
    length 18.0532
    axis 0 -0 20 xyz
    dof rz ry rx
    limits( -inf , inf )
( -inf , inf )
( -inf , inf )

  end
  begin
    id 4
    name lfoot
    direction 0.0841971 -0.23133 0.969225
    length 5.23822
    axis -90 7.62852e-016 20 xyz
    dof ry rx rz
    limits( -inf , inf )
( -inf , inf )
( -inf , inf )

  end
  begin
    id 5
    name ltoes
    direction 0 0 0
    length 0
    axis 0 0 0 xyz
    dof rz ry rx
    limits( -inf , inf )
( -inf , inf )
( -inf , inf )

  end
  begin
    id 6
    name rfemurDummy
    direction -0.625247 -0.75382 0.202044
    length 5.74091
    axis 0 -0 0 xyz
  end
  begin
    id 7
    name rfemur
    direction -0.34202 -0.939693 -1.47013e-008
    length 16.4922
    axis 0 -0 -20 xyz
    dof rx ry rz
    limits( -inf , inf )
( -inf , inf )
( -inf , inf )

  end
  begin
    id 8
    name rtibia
    direction -0.34202 -0.939693 -7.74345e-010
    length 18.2421
    axis 0 -0 -20 xyz
    dof rz ry rx
    limits( -inf , inf )
( -inf , inf )
( -inf , inf )

  end
  begin
    id 9
    name rfoot
    direction -0.124331 -0.341598 0.931586
    length 5.45787
    axis -90 -7.62852e-016 -20 xyz
    dof ry rx rz
    limits( -inf , inf )
( -inf , inf )
( -inf , inf )

  end
  begin
    id 10
    name rtoes
    direction 0 0 0
    length 0
    axis 0 0 0 xyz
    dof rz ry rx
    limits( -inf , inf )
( -inf , inf )
( -inf , inf )

  end
  begin
    id 11
    name lowerbackDummy
    direction 0 0 0
    length 0
    axis 0 -0 0 xyz
  end
  begin
    id 12
    name lowerback
    direction -0.0218484 0.994884 -0.0986304
    length 4.45607
    axis 0 -0 0 xyz
    dof rx ry rz
    limits( -inf , inf )
( -inf , inf )
( -inf , inf )

  end
  begin
    id 13
    name upperback
    direction -0.00973057 0.999717 -0.0217111
    length 4.47449
    axis 0 -0 0 xyz
    dof rx ry rz
    limits( -inf , inf )
( -inf , inf )
( -inf , inf )

  end
  begin
    id 14
    name thorax
    direction -0.000928171 0.999699 0.0245198
    length 4.50973
    axis 0 -0 0 xyz
    dof rx ry rz
    limits( -inf , inf )
( -inf , inf )
( -inf , inf )

  end
  begin
    id 15
    name rclavicle
    direction -0.9009 0.425937 -0.0834055
    length 7.28587
    axis 0 -0 0 xyz
    dof rx ry rz
    limits( -inf , inf )
( -inf , inf )
( -inf , inf )

  end
  begin
    id 16
    name rhumerus
    direction -1 -2.23604e-007 -1.42637e-007
    length 13.5704
    axis 180 30 90 xyz
    dof rx ry rz
    limits( -inf , inf )
( -inf , inf )
( -inf , inf )

  end
  begin
    id 17
    name rradius
    direction -1 5.68281e-008 -4.4952e-007
    length 8.06782
    axis 180 30 90 xyz
    dof rz ry rx
    limits( -inf , inf )
( -inf , inf )
( -inf , inf )

  end
  begin
    id 18
    name rwrist
    direction -1 1.51393e-007 1.38143e-007
    length 4.03391
    axis -90 -90 0 xyz
    dof rz rx ry
    limits( -inf , inf )
( -inf , inf )
( -inf , inf )

  end
  begin
    id 19
    name rthumb
    direction 0 0 0
    length 0
    axis 0 0 0 xyz
    dof ry rx rz
    limits( -inf , inf )
( -inf , inf )
( -inf , inf )

  end
  begin
    id 20
    name rhand
    direction -1 -3.34077e-007 -5.59631e-007
    length 1.29744
    axis -90 -90 0 xyz
    dof ry rx rz
    limits( -inf , inf )
( -inf , inf )
( -inf , inf )

  end
  begin
    id 21
    name rfingers
    direction 0 0 0
    length 0
    axis 0 0 0 xyz
    dof rz ry rx
    limits( -inf , inf )
( -inf , inf )
( -inf , inf )

  end
  begin
    id 22
    name lclavicle
    direction 0.940017 0.332249 -0.0773232
    length 8.29589
    axis 0 -0 0 xyz
    dof rx ry rz
    limits( -inf , inf )
( -inf , inf )
( -inf , inf )

  end
  begin
    id 23
    name lhumerus
    direction 1 7.41158e-008 -1.44768e-008
    length 12.0042
    axis 180 -30 -90 xyz
    dof rx ry rz
    limits( -inf , inf )
( -inf , inf )
( -inf , inf )

  end
  begin
    id 24
    name lradius
    direction 1 -1.32972e-007 3.10821e-007
    length 8.1902
    axis 180 -30 -90 xyz
    dof rz ry rx
    limits( -inf , inf )
( -inf , inf )
( -inf , inf )

  end
  begin
    id 25
    name lwrist
    direction 1 3.08957e-007 4.01394e-007
    length 4.09509
    axis -90 90 0 xyz
    dof rz rx ry
    limits( -inf , inf )
( -inf , inf )
( -inf , inf )

  end
  begin
    id 26
    name lthumb
    direction 0 0 0
    length 0
    axis 0 0 0 xyz
    dof ry rx rz
    limits( -inf , inf )
( -inf , inf )
( -inf , inf )

  end
  begin
    id 27
    name lhand
    direction 1 -1.64125e-007 -6.99514e-007
    length 1.37229
    axis -90 90 0 xyz
    dof ry rx rz
    limits( -inf , inf )
( -inf , inf )
( -inf , inf )

  end
  begin
    id 28
    name lfingers
    direction 0 0 0
    length 0
    axis 0 0 0 xyz
    dof rz ry rx
    limits( -inf , inf )
( -inf , inf )
( -inf , inf )

  end
  begin
    id 29
    name lowerneck
    direction -0.030798 0.998024 0.0547665
    length 3.93918
    axis 0 -0 0 xyz
    dof rx ry rz
    limits( -inf , inf )
( -inf , inf )
( -inf , inf )

  end
  begin
    id 30
    name upperneck
    direction 0.0531588 0.996611 -0.0627736
    length 3.95491
    axis 0 -0 0 xyz
    dof rx ry rz
    limits( -inf , inf )
( -inf , inf )
( -inf , inf )

  end
  begin
    id 31
    name head
    direction 0 0 0
    length 0
    axis 0 0 0 xyz
    dof rx ry rz
    limits( -inf , inf )
( -inf , inf )
( -inf , inf )

  end
:hierarchy
  begin
    root lfemurDummy rfemurDummy lowerbackDummy
    lfemurDummy lfemur
    lfemur ltibia
    ltibia lfoot
    lfoot ltoes
    rfemurDummy rfemur
    rfemur rtibia
    rtibia rfoot
    rfoot rtoes
    lowerbackDummy lowerback
    lowerback upperback
    upperback thorax
    thorax rclavicle lclavicle lowerneck
    rclavicle rhumerus
    rhumerus rradius
    rradius rwrist
    rwrist rthumb rhand
    rhand rfingers
    lclavicle lhumerus
    lhumerus lradius
    lradius lwrist
    lwrist lthumb lhand
    lhand lfingers
    lowerneck upperneck
    upperneck head
  end

:SAMPLES-PER-SECOND 30
:FULLY-SPECIFIED
:DEGREES
38
root  17.17633375 31.13889018 2.89502219 -32.44900513 -64.79199982 33.54499817
lowerback  29.00189972 4.88394022 3.903939962
upperback  14.48999977 6.258810043 8.442440033
thorax  -0.1157199964 2.524940014 5.334449768
lowerneck  10.04599953 4.88725996 8.86509037
upperneck  13.48130035 5.607900143 10.85509968
head  2.619189978 3.173939943 2.002579927
lclavicle  0 -9.442270133e-015 7.951389973e-016
lhumerus  29.19190025 13.17500019 63.39390182
lradius  2.482284808e-031 -2.511395263e-031 134.6660004
lwrist  -7.062250077e-031 3.531125038e-031 23.38409996
lhand  -1.496451383e-031 -27.76390076 20.11240005
lfingers  90 7.125020027 -90
lthumb  89.89689403 5.08795885 91.16245106
rclavicle  0 -9.442270133e-015 7.951389973e-016
rhumerus  63.57849884 12.49020004 -70.95939636
rradius  -1.854941063e-032 3.526249562e-031 93.01119995
rwrist  3.531125038e-031 7.062250077e-031 -67.89969635
rhand  -7.920061211e-032 -33.2840004 9.303460121
rfingers  -90 -7.125020027 -90
rthumb  -92.93752616 -24.25625642 -97.11982154
rfemur  -43.08029938 5.703110218 -26.28450012
rtibia  -0 0 85.76689911
rfoot  -9.726684258e-032 -24.82600021 4.28057003
rtoes  5.373923086 19.29304026 -105.8922705
lfemur  -37.40850067 3.525140047 -12.59560013
ltibia  -0 0 83.95780182
lfoot  5.204941929e-032 -32.00279999 2.019910097
ltoes  -4.250644065 -19.5611806 -102.515957
39
root  17.28508867 30.83066565 3.038866689 -33.69900513 -65.49199677 34.76800537
lowerback  29.15979958 5.001860142 4.064789772
upperback  14.51790047 6.433040142 8.168450356
thorax  -0.1176170036 2.626369953 4.880700111
lowerneck  10.45670033 4.881770134 9.53001976
upperneck  13.44419956 5.725979805 10.47649956
head  2.572439909 3.238290071 1.757459998
lclavicle  0 -9.442270133e-015 7.951389973e-016
lhumerus  28.89410019 11.84599972 63.27170181
lradius  2.508143942e-031 -2.485569956e-031 135.2590027
lwrist  0 -8.827812596e-032 22.82309914
lhand  -1.496451383e-031 -27.76390076 20.11240005
lfingers  90 7.125020027 -90
lthumb  89.89689403 5.08795885 91.16245106
rclavicle  0 -9.442270133e-015 7.951389973e-016
rhumerus  62.90039825 12.1225996 -71.6371994
rradius  -2.336894476e-032 3.523383783e-031 93.79460144
rwrist  0 7.062250077e-031 -68.17939758
rhand  -7.920061211e-032 -33.2840004 9.303460121
rfingers  -90 -7.125020027 -90
rthumb  -92.93752616 -24.25625642 -97.11982154
rfemur  -43.98559952 6.187650204 -27.25819969
rtibia  -0 0 86.01159668
rfoot  -4.871595328e-032 -25.03499985 5.083920002
rtoes  5.373923086 19.29304026 -105.8922705
lfemur  -37.80260086 4.517739773 -12.92840004
ltibia  -0 0 85.37310028
lfoot  5.281687363e-032 -33.31119919 1.801139951
ltoes  -4.250644065 -19.5611806 -102.515957
40
root  17.38493311 30.56377801 3.187689068 -34.44700623 -66.16500092 35.40600586
lowerback  29.26239967 5.042719841 4.443210125
upperback  14.51239967 6.566140175 7.989960194
thorax  -0.1106730029 2.714380026 4.426229954
lowerneck  10.91380024 4.802380085 10.07610035
upperneck  13.28250027 5.775430202 10.04839993
head  2.473579884 3.256439924 1.511909962
lclavicle  0 -9.442270133e-015 7.951389973e-016
lhumerus  28.35090065 10.15810013 63.58459854
lradius  2.526726811e-031 -2.466677048e-031 135.6889954
lwrist  -1.412450015e-030 8.827812596e-032 22.18740082
lhand  -1.496451383e-031 -27.76390076 20.11240005
lfingers  90 7.125020027 -90
lthumb  89.89689403 5.08795885 91.16245106
rclavicle  0 -9.442270133e-015 7.951389973e-016
rhumerus  61.90179825 11.74670029 -72.18139648
rradius  -2.816629961e-032 3.519873576e-031 94.57510376
rwrist  3.531125038e-031 1.412450015e-030 -68.31759644
rhand  -7.920061211e-032 -33.2840004 9.303460121
rfingers  -90 -7.125020027 -90
rthumb  -92.93752616 -24.25625642 -97.11982154
rfemur  -44.83319855 6.651710033 -27.97220039
rtibia  -0 0 86.29129791
rfoot  -4.880130385e-032 -25.24869919 6.118740082
rtoes  5.373923086 19.29304026 -105.8922705
lfemur  -38.27809906 5.343550205 -13.02859974
ltibia  -0 0 86.83519745
lfoot  8.001169117e-032 -34.15859985 2.284049988
ltoes  -4.250644065 -19.5611806 -102.515957
41
root  17.47740047 30.33489017 3.335799946 -35.04100037 -66.69000244 35.75799561
lowerback  29.35149956 5.001900196 4.820049763
upperback  14.5557003 6.586679935 7.816009998
thorax  -0.03296380118 2.745330095 4.015999794
lowerneck  10.7755003 4.523009777 10.91409969
upperneck  13.47099972 5.508460045 9.150400162
head  2.621759892 3.168979883 1.100530028
lclavicle  0 -9.442270133e-015 7.951389973e-016
lhumerus  27.80380058 8.353540421 64.09349823
lradius  2.540678391e-031 -2.452304498e-031 136.0140076
lwrist  0 8.827812596e-032 21.67029953
lhand  -1.496451383e-031 -27.76390076 20.11240005
lfingers  90 7.125020027 -90
lthumb  89.89689403 5.08795885 91.16245106
rclavicle  0 -9.442270133e-015 7.951389973e-016
rhumerus  60.78939819 11.31680012 -72.58149719
rradius  -3.212747254e-032 3.516479289e-031 95.22019958
rwrist  3.531125038e-031 7.062250077e-031 -68.31639862
rhand  -7.920061211e-032 -33.2840004 9.303460121
rfingers  -90 -7.125020027 -90
rthumb  -92.93752616 -24.25625642 -97.11982154
rfemur  -45.47539902 7.079730034 -28.59300041
rtibia  -0 0 86.59950256
rfoot  -0 -25.18549919 7.613339901
rtoes  5.373923086 19.29304026 -105.8922705
lfemur  -38.68130112 5.913809776 -13.08530045
ltibia  -0 0 88.2983017
lfoot  5.37480345e-032 -34.79270172 3.119750023
ltoes  -4.250644065 -19.5611806 -102.515957
